<?xml version="1.0" encoding="UTF-8"?>
<svg width="30ox" height="30px" viewBox="0 0 19 61" version="1.1" xmlns="http://www.w3.org/2000/svg" xmlns:xlink="http://www.w3.org/1999/xlink">
    <!-- Generator: Sketch 53 (72520) - https://sketchapp.com -->
    <title>logo-hemingway-black</title>
    <desc>Created with Sketch.</desc>
    <g id="Page-1" stroke="none" stroke-width="1" fill="none" fill-rule="evenodd">
        <g id="logo-lockup-hemingway-black" transform="translate(-141.000000, -64.000000)" fill="#000000">
            <path d="M149,67.0093597 L149,64.5 C149,64.2238576 149.223858,64 149.5,64 L151.5,64 C151.776142,64 152,64.2238576 152,64.5 L152,67.0093597 C152.03049,67.0153434 152.060424,67.0241697 152.089404,67.0357617 L156.685695,68.8742781 C156.875525,68.9502098 157,69.1340642 157,69.3385165 L157,72.5 C157,72.7761424 156.776142,73 156.5,73 L144.5,73 C144.223858,73 144,72.7761424 144,72.5 L144,69.3385165 C144,69.1340642 144.124475,68.9502098 144.314305,68.8742781 L148.910596,67.0357617 C148.939576,67.0241697 148.96951,67.0153434 149,67.0093596 Z M142.205661,106.673952 L142.67861,99.4851308 L158.642298,104.362924 L159.134651,111.846699 L142.205661,106.673952 Z M141.775708,113.209244 L159.582245,118.650131 L159.929892,123.934352 C159.966148,124.485446 159.54879,124.961587 158.997696,124.997843 C158.975843,124.999281 158.953949,125 158.932049,125 L142.067951,125 C141.515667,125 141.067951,124.552285 141.067951,124 C141.067951,123.9781 141.068671,123.956205 141.070108,123.934352 L141.775708,113.209244 Z M143.108563,92.9498388 L143.434211,88 L141.5,88 C141.223858,88 141,87.7761424 141,87.5 L141,84.5 C141,84.2238576 141.223858,84 141.5,84 L159.5,84 C159.776142,84 160,84.2238576 160,84.5 L160,87.5 C160,87.7761424 159.776142,88 159.5,88 L157.565789,88 L158.194703,97.5594927 L143.108563,92.9498388 Z M149.5,76 L151.5,76 C151.776142,76 152,76.2238576 152,76.5 L152,80.5 C152,80.7761424 151.776142,81 151.5,81 L149.5,81 C149.223858,81 149,80.7761424 149,80.5 L149,76.5 C149,76.2238576 149.223858,76 149.5,76 Z" id="logo-hemingway-black"></path>
        </g>
    </g>
</svg>