<?xml version="1.0" encoding="UTF-8"?>
<svg width="50px" height="50px" viewBox="0 0 50 50" version="1.1" xmlns="http://www.w3.org/2000/svg" xmlns:xlink="http://www.w3.org/1999/xlink">
    <!-- Generator: Sketch 54.1 (76490) - https://sketchapp.com -->
    <title>Desktop</title>
    <desc>Created with Sketch.</desc>
    <g id="Desktop" stroke="none" stroke-width="1" fill="none" fill-rule="evenodd">
        <g id="Group-9" transform="translate(3.000000, 1.000000)" fill="#333333">
            <path d="M18.9531931,11.5 C18.9531931,6.89962082 16.0189104,3.46663644 11.5002398,3.46663644 C6.94704251,3.46663644 4.04680691,6.89962082 4.04680691,11.5 C4.04680691,16.0667271 6.94704251,19.5328896 11.5002398,19.5328896 C16.0189104,19.5328896 18.9531931,16.0667271 18.9531931,11.5 M0,11.5 C0,4.86675184 4.75508204,0 11.5002398,0 C18.244918,0 23,4.86675184 23,11.5 C23,18.1332482 18.244918,23 11.5002398,23 C4.75508204,23 0,18.1332482 0,11.5" id="Fill-1"></path>
            <polygon id="Fill-3" points="25 23 25 1 28.9856772 1 28.9856772 19.6025411 39 19.6025411 39 23"></polygon>
            <polygon id="Fill-5" points="38.9614277 48 31.1237038 38.7315596 29.0937467 40.9743327 29.0937467 48 25 48 25 26 29.0937467 26 29.0937467 36.4883176 38.2265633 26 43.3004609 26 33.8178747 36.3893579 44 48"></polygon>
            <path d="M17.9799929,37.0164151 C17.9799929,32.7616185 15.2999881,29.3969899 10.3082053,29.3969899 L5.91949506,29.3969899 L5.91949506,44.6025411 L10.3082053,44.6025411 C15.1656544,44.6025411 17.9799929,41.1722521 17.9799929,37.0164151 L17.9799929,37.0164151 Z M2,48 L2,26 L10.3082053,26 C17.2764082,26 22,30.5516756 22,37.0164151 C22,43.4811546 17.2764082,48 10.3082053,48 L2,48 Z" id="Fill-7"></path>
        </g>
    </g>
</svg>